<?xml version="1.0" standalone="no"?><!DOCTYPE svg PUBLIC "-//W3C//DTD SVG 1.1//EN" "http://www.w3.org/Graphics/SVG/1.1/DTD/svg11.dtd"><svg t="1737104296305" class="icon" viewBox="0 0 1024 1024" version="1.1" xmlns="http://www.w3.org/2000/svg" p-id="1801" xmlns:xlink="http://www.w3.org/1999/xlink" width="200" height="200"><path d="M494.963409 1.464635c69.764426-11.600174 127.58376 47.580682 109.684274 118.107562-22.746507 89.551891-163.291963 87.754681-185.58463 0-13.615228-53.571382 20.676992-108.903667 75.900356-118.107562zM665.807286 372.633895c-85.376554-1.252601-221.220219 2.759353-309.991503-2.123976-14.468449-79.186164 18.044715-140.781454 71.706865-151.837019 38.267866 33.438999 135.680282 26.667693 168.719901 0 57.256571 15.92074 81.818441 75.519129 69.564737 153.960995zM309.415087 391.586291c-43.07858 42.661047-83.125503 88.371904-101.206526 156.066816-17.31857-5.682088-46.146545-9.421738-67.495221-4.211643 23.272962-103.965878 84.287336-170.172192 156.066816-225.631553 11.091872 17.699796-3.19504 60.79653 12.634931 73.77638zM720.613115 317.791758c80.838145 48.524671 134.463988 124.225337 164.508257 223.507577-18.153637 0.59907-52.336935-1.670135-69.564736 6.408233-18.534863-66.551233-55.096288-115.021443-101.224679-153.94284 11.926939-15.485052 3.9938-50.848337 6.281158-75.97297zM543.506234 459.081513c7.479298 14.323219 5.264555 38.322327 8.441441 56.947959 4.120876 6.444541 15.811818 5.246401 21.058219 10.565417 28.392288-18.861629 41.771518-48.27052 73.812687-16.882883 5.881778 5.772857 18.698246 17.409338 18.970551 25.324324 0.816914 22.292666-30.026115 31.387638-35.853433 48.506517 2.450741 7.406684 8.314366 11.38233 8.423288 21.094526 21.984054 3.358423 51.647097-1.034757 63.229117 12.616778-3.812264 15.17644-1.470445 36.48881-2.051361 54.842137-10.819568 13.17954-39.429699 8.405134-59.071934 12.653085-8.223597 2.305512-6.19039 14.922289-12.634932 18.97055 10.166037 17.935793 27.10338 29.118434 35.871587 48.506518-12.017708 15.031211-25.524013 43.605036-44.258567 44.27672-19.297316 0.671685-28.610132-25.342477-46.455157-33.711303-7.969447 1.125525-11.672788 6.553463-21.058218 6.335619-5.101172 17.37303-1.107372 43.895494-8.441442 59.035627-11.563867 9.78481-48.796976 8.368827-63.24727 2.105822-8.514056-12.562317-7.225147-34.927597-8.423288-54.842137-2.741199-7.769757-13.234001-7.842371-19.006858-12.616778-22.546817 4.919636-30.044269 34.419295-50.594186 33.711304-18.825321-0.59907-30.116884-28.973204-44.27672-42.152745 6.571617-20.804068 24.216952-30.607032 33.711304-48.506517 0.871375-10.038961-7.18884-11.091872-6.317466-21.094526-19.71485-2.759353-44.004416-0.99845-59.071934-8.441442-6.462695-14.214298-6.462695-49.06928 0-63.24727 14.305066-7.515606 38.322327-5.282708 56.947959-8.441442 6.281158-3.576266 6.027007-13.687842 10.565416-19.006857-3.013504-19.424391-33.49346-26.522463-33.711303-48.470211-0.217844-15.793664 30.262113-43.605036 42.152744-44.258566 22.51051-1.270755 28.90059 26.812922 48.488365 33.729457 8.023907-1.833517 13.397384-6.299312 21.112679-8.441441 3.358423-20.51361-0.090768-47.852987 10.52911-61.159603 16.901036-2.686738 47.380992-5.028557 61.159602 2.051361z m-37.977408 272.050402c37.051573 2.232897 89.315893-19.551467 92.765084-80.16646 3.39473-58.654401-44.87579-98.392712-99.100703-90.604802-104.764638 14.831521-90.49588 164.853176 6.335619 170.771262z" p-id="1802" fill="#2c2c2c"></path><path d="M499.21136 594.053803c89.89681-20.005308 82.635355 129.871118-6.335619 101.188372-39.611236-12.762007-47.798526-89.134357 6.335619-101.188372zM157.559915 596.159625c117.25434-9.530659 132.757546 158.136331 33.729457 185.58463-72.995774 20.277612-148.242599-48.088984-115.965432-128.636671 10.38388-25.90524 36.797422-53.262771 82.235975-56.947959zM853.479583 596.159625c53.063081-3.685188 84.196568 30.207652 94.925367 56.947959 27.520913 68.675208-26.086776 131.250794-86.520233 132.848314-54.678754 1.452291-111.535945-41.263217-94.88906-118.107561 8.096522-37.305724 35.635589-68.18506 86.483926-71.688712zM248.255484 811.225761c55.659051 18.934243 84.650409 75.555437 71.706866 156.13943-98.429019 3.449191-211.562484 3.449191-309.991503 0-14.014608-79.422161 17.77241-142.56051 71.670558-153.94284 37.342031 33.366385 131.486792 32.839929 166.614079-2.19659zM944.175153 811.225761c54.896598 18.970551 83.179964 75.664358 69.601044 156.13943-98.447173 3.449191-211.562484 3.449191-309.991503 0-14.069069-79.621851 19.587774-140.654378 71.706865-153.94284 39.012166 32.585778 132.17663 33.09408 168.683594-2.19659zM376.910309 927.245654c1.79721-0.381226 1.978746 0.816914 2.105822 2.069515 27.756911 10.801414 62.448511 24.452949 101.206525 27.430145 64.681408 4.974096 129.308355-11.908786 170.789416-27.430145-0.381226 25.70555-1.779056 52.427703 8.477748 67.531529-76.789884 35.29067-216.718117 36.597732-293.144928 0 11.509406-14.613678 6.535309-54.243067 10.565417-69.601044z" p-id="1803" fill="#2c2c2c"></path></svg>